<svg version="1.0" xmlns="http://www.w3.org/2000/svg" width="933.333" height="933.333" viewBox="0 0 700 700"><path d="M430.5 1.2c-1.2 3.9-13.4 46.9-19.4 68.8-12.1 44-13.3 47.8-16 51.1-4.6 5.4-7.8 5.1-32.4-3-25-8.2-46.1-13.9-58.4-15.6-2.1-.3-4.9-.8-6.3-1-1.4-.2-4.3-.7-6.5-.9-2.2-.3-7.6-1-12-1.5-4.4-.6-10.7-1.3-14-1.7-3.3-.3-7.6-.8-9.5-1-9.7-1.2-41.2-1-49.5.2-16.7 2.5-33.3 7.8-41 12.9-2 1.4-3.9 2.5-4.3 2.5-1.1 0-9.2 9.1-10.8 12.2-2.9 5.6-4.3 12.1-4 18.7.5 11.5 6.2 20.4 18.5 28.5 15.9 10.6 25.8 14.6 87.6 35.6 57.9 19.6 89.7 33 117.1 49.1 8 4.7 17 10.5 18.4 11.9.3.3 3.7 3.1 7.7 6.3 19.8 16 38.1 40.3 48.8 64.6 4 9 9.6 25.7 11 32.6 6 29.5 5.5 61.9-1.5 88.8-12.4 47.2-45.1 90.9-87.5 116.8-28 17.1-59.5 29-97.5 36.9-5.8 1.2-11.4 2.3-12.5 2.5-1.1.2-4.9.8-8.5 1.4-6.5 1-11.3 1.6-22.5 2.7-3.3.3-6.6.7-7.3 1-7.4 2.3-88.8 2.2-99.7-.1-1.1-.3-5.1-.7-9-1-3.8-.3-8.1-.7-9.5-.9-1.4-.3-4.7-.7-7.5-1.1-4.6-.5-6.4-.8-13.8-1.9-1.5-.3-3.5-.7-4.5-1-.9-.3-3.3-.7-5.2-1-1.9-.3-6.9-1.2-11-2.1-4.1-.9-8.6-1.9-10-2.1-1.4-.3-3.3-.7-4.2-1-1-.3-2.8-.7-4-.9-1.3-.3-9-2.3-17.2-4.5-8.5-2.4-15.9-3.9-17.2-3.6-4.6 1.2-4.7 2.3-4.8 52.3L.5 700H700V0H565.5c-106.8 0-134.6.3-135 1.2z"/><path d="M1.5 348.7c0 63.1.3 79.4 1.4 82 1.7 4.2 6.1 6.9 21.1 13 11.4 4.7 36.7 13.5 46.5 16.3 15.6 4.4 39.7 9.8 52 11.6 6.5 1 8.2 1.2 13.5 1.9 3 .3 6.6.8 8 1 7.2 1.1 24.3 1.9 39 1.9 21.3 0 29.9-1 44-5 12.7-3.6 27.4-11.2 33.9-17.6 16.4-16.2 15.9-38.9-1.4-56.1-5.4-5.4-19.8-14.9-29.5-19.5-13.4-6.3-30-12.6-36.6-13.8-5-.9-47.9-13.6-58.9-17.4C82 328.8 41.6 305.9 9 276c-3.6-3.3-6.7-6-7-6-.3 0-.5 35.4-.5 78.7z"/></svg>