<svg xmlns="http://www.w3.org/2000/svg" viewBox="0 0 132 45"><path fill="none" d="M89.6 16c0 .3-.1.7.5.8 2.1.3 4.8-.7 5.4-2.8 1-3.5-1-6.2-5.3-5.8-.6.1-.6.4-.6.8v7zm4.1 12.6c-1.7-.1-3 .9-3.5 2.7-.4 1.3-.3 2.7.2 4 .8 1.9 2.9 2.7 4.7 1.8 1.7-.8 2-2.4 2-4.2 0-.4-.1-.8-.2-1.3-.3-1.8-1.6-2.9-3.2-3zm-16.2 0h-1.3V32h.9c1.8 0 2.8-.6 2.8-1.8 0-1.1-.8-1.6-2.4-1.6zm47.7-16.7c1.6.1 2.8-.7 2.8-1.9.1-1.2-.8-1.8-2.5-1.9h-1.3v3.7c.5.1.8.1 1 .1zm.3 16.7c-.4 0-.8.1-1.2.3v3.4c.3.1.6.1.9.1 1.7-.1 2.7-.8 2.7-2 .1-1.2-.8-1.7-2.4-1.8zM110.4 8.2c-1.7-.2-2.9.4-3.6 1.9-.8 1.6-.8 3.2 0 4.8.6 1.2 1.5 2 3 2 2.3.1 3.7-1.6 3.7-4.6 0-.2 0-.7-.1-1.1-.4-1.4-1.9-2.9-3-3z"/><path d="M1 28.7c3 1.3 6.2 2.1 9.5 2.3 1.8.1 3.6.1 5.3-.7 2.2-1 2.5-3.2.6-4.7-.4-.3-.9-.5-1.3-.8l-1.9-.8C8.5 22.8 3.9 21.4.1 17.7v10c0 .6.4.8.9 1z"/><path d="M25.9 7.5c-.2.9-.6 1.1-1.5.8-1.9-.7-3.9-1.3-6-1.5-2.4-.3-4.8-.6-7.1.4-.9.4-1.6 1-1.7 2.1-.1 1 .5 1.7 1.3 2.2 1.4.9 3 1.3 4.6 1.9 3 1 6 2 8.8 3.6 7.4 4.5 7.5 15.2-.1 20.3-3.1 2-6.7 2.8-10.5 3.1-4.3.3-8.5-.1-12.6-1.3C.2 38.8 0 39 0 40c.1.9.1 2.7 0 5.4h45.3V.4H27.9c-1 3.4-1.6 5.8-2 7.1zm60.5 12.4c2.3.1 4.6.3 6.9-.2 1.4-.2 2.7-.6 3.8-1.5 1-.6 1.7-1.4 2.2-2.5 2.3-4.9-.2-9.5-5.5-10.5-2.5-.4-5-.2-7.5-.1-.6 0-.9.1-1.1.1v14.6c.4.1.8.1 1.2.1zm3.7-11.7c4.3-.4 6.3 2.2 5.3 5.8-.6 2.1-3.3 3.1-5.4 2.8-.5-.1-.5-.4-.5-.8V9c.1-.4.1-.8.6-.8zm20-3.3c-4.8-.1-8.3 3.2-8.3 7.7s3.2 7.6 7.9 7.6c4.8 0 8.2-3.1 8.2-7.6 0-4.6-3.1-7.7-7.8-7.7zm-.4 12c-1.4 0-2.4-.8-3-2-.7-1.6-.7-3.2 0-4.8.8-1.5 1.9-2.1 3.6-1.9 1.1.1 2.6 1.7 2.9 3 .1.4.1.9.1 1.1.1 2.9-1.3 4.6-3.6 4.6zm-16.1 8.5c-4.8 0-8.2 3.2-8.2 7.7s3.1 7.5 7.8 7.5c4.9 0 8.2-3 8.2-7.7.2-4.6-2.9-7.5-7.8-7.5zM95.1 37c-1.8.9-3.9.1-4.7-1.8-.6-1.3-.6-2.6-.2-4 .5-1.8 1.8-2.8 3.5-2.7 1.6.1 2.8 1.2 3.3 2.9.1.5.1.9.2 1.3-.1 1.9-.4 3.5-2.1 4.3zm-26.3-5.5h-5.5v3.2h2.3v2.5c-1.4.1-2.5 0-3.4-.2-1.9-.5-3-2.2-2.9-4.2 0-1.8 1.1-3.2 3.1-3.7 1.3-.3 2.5-.2 3.8-.1.5 0 1.2.1 2 .3l1-2.9c-.2-.1-.5-.2-.9-.3-3.5-.8-7-.9-10.2 1.1-2.7 1.7-3.6 4.3-3.1 7.3.4 2.8 2.1 4.6 4.8 5.5 2.4.8 4.9.7 7.4.2 1.6-.3 2.5-.5 2.5-.7v-7.1c0-.7-.2-.9-.9-.9zm12.8 2c1.7-1 2.8-2.3 2.4-4.4-.4-1.9-1.6-2.9-4.2-3.3-2.3-.4-4.5-.2-6.8 0h-1v14.6h4.1v-4.8c0-.3-.1-.7.5-.7 1.1 0 2 .2 2.4 1.3.2.5.3 1.1.5 1.6.5 1.7.7 2.5.7 2.5h4.4c-.9-2.4-.7-5.1-3-6.8zM77.1 32h-.9v-3.4h1.3c1.6 0 2.4.5 2.4 1.6.1 1.1-1 1.8-2.8 1.8zm-.8-11.9c4-.4 6.1-2.6 6.2-6.7V5h-4.3v1.6c.1 2.4.1 4.9 0 7.3-.1 2-1.1 2.9-2.8 2.8-1.4-.1-2.2-.9-2.4-2.6-.2-2 0-4-.1-6V5h-4.2v5c0 1.9 0 3.4.1 4.3.1 2.3 1.1 4.1 3.2 5.1 1.4.7 2.9.8 4.3.7zm41.1 5.5h-4.2c.2 4.8.1 7.9-.2 9.6-.3 1.4-1.1 2.1-2.4 2.2-1.4.1-2.3-.6-2.7-2-.1-.5-.2-1.1-.2-1.7v-8h-4.2v.7c0 2.7-.1 5.5.1 8.2.2 3.2 1.7 5.1 4.3 5.8 1.7.4 3.4.4 5.1-.1 2.1-.6 3.5-1.9 4.1-4 .5-1.9.3-3.8.4-5.5v-3.3c-.1-1.1-.1-1.7-.1-1.9zm10.6.1c-2.4-.5-4.9-.2-7.3 0h-.6v14.6h4.1v-4c0-.8.2-1 1-.9 1.1.1 2.2 0 3.2-.4 2.6-.7 3.8-2.5 3.7-5.1-.1-2.1-1.6-3.7-4.1-4.2zm-2.7 6.7c-.3 0-.6 0-.9-.1v-3.4c.4-.2.7-.3 1.2-.3 1.6.1 2.5.6 2.5 1.8-.1 1.1-1.2 1.9-2.8 2zM57.6 13.2c1.1.6 2.2.8 3.3 1.2.6.3 1.3.5 1.2 1.3-.1.9-.9.9-1.5.9-.9 0-1.7-.1-2.6-.2-.7-.1-1.6-.9-2-.5-.5.4-.5 1.4-.7 2.2v.1c-.2.6 0 1 .7 1.1 1.3.4 2.6.6 3.8.6 1.2 0 2.2-.1 3.2-.4 2.1-.6 3.5-2.1 3.6-4 .2-1.9-.9-3.5-3-4.4-1-.4-2.1-.7-3.1-1.1-.5-.2-1-.5-.9-1.1.1-.6.6-.8 1.2-.9.9-.1 1.7 0 2.6.2 1.6.7 1.6.7 2.1-1 .1-.3.1-.5.2-.8.2-.5 0-.9-.5-1-2.6-.7-5.3-.9-7.8.4-1.5.8-2.3 2.1-2.2 3.8 0 1.8.9 2.8 2.4 3.6zm66.6 2.7c0-.7.2-.9.9-.9 1.2.1 2.3-.1 3.5-.5 2.4-.8 3.6-2.4 3.5-4.9-.1-2.2-1.4-3.8-3.8-4.3s-4.8-.3-7.2-.1c-.5 0-.9.1-1 .1v14.5h4.1v-3.9zm0-7.8h1.3c1.7 0 2.5.7 2.5 1.9-.1 1.1-1.2 2-2.8 1.9h-.9V8.1z"/></svg>