<?xml version="1.0" encoding="UTF-8"?><!DOCTYPE svg PUBLIC "-//W3C//DTD SVG 1.1//EN" "http://www.w3.org/Graphics/SVG/1.1/DTD/svg11.dtd"><svg xmlns="http://www.w3.org/2000/svg" xmlns:xlink="http://www.w3.org/1999/xlink"><symbol id="icon-angle-down" viewBox="0 0 8 5"><path class="st0" d="M7.2 0L4 3.4.8.1 0 .9 4.1 5 8 .8z"/></symbol><symbol id="icon-arrow-down" viewBox="0 0 16 28"><path d="M14.7 19.1L9 24.5V0H7v24.5l-5.7-5.4L0 20.4 8 28l8-7.6z"/></symbol><symbol id="icon-arrow-left" viewBox="0 0 28 16"><path d="M8.9 14.7L3.5 9H28V7H3.5l5.4-5.7L7.6 0 0 8l7.6 8z"/></symbol><symbol id="icon-arrow-right" viewBox="0 0 28 16"><path d="M19.1 1.3L24.5 7H0v2h24.5l-5.4 5.7 1.3 1.3L28 8l-7.6-8z"/></symbol><symbol id="icon-book" viewBox="0 0 100 130"><path d="M90.8 12.1h-62C27.4 5.4 21.5.3 14.4.3 6.3.3-.3 6.9-.3 15v79.4c0 1.6 1.3 2.9 2.9 2.9s2.9-1.3 2.9-2.9V15c0-4.9 4-8.8 8.8-8.8 4.9 0 8.8 4 8.8 8.8 0 1.6 1.3 2.9 2.9 2.9h64.7c1.6 0 2.9 1.3 2.9 2.9V109c0 1.6-1.3 2.9-2.9 2.9H29.1V26.8c0-1.6-1.3-2.9-2.9-2.9s-2.9 1.3-2.9 2.9v76.5c-2.5-1.9-5.5-3-8.8-3-8.1 0-14.7 6.6-14.7 14.7s6.6 14.7 14.7 14.7h44.1c1.6 0 2.9-1.3 2.9-2.9 0-1.6-1.3-2.9-2.9-2.9H14.4c-4.9 0-8.8-4-8.8-8.8 0-4.9 4-8.8 8.8-8.8 4.9 0 8.8 4 8.8 8.8 0 1.6 1.3 2.9 2.9 2.9h64.7c4.9 0 8.8-4 8.8-8.8V20.9c.1-4.9-3.9-8.8-8.8-8.8z"/><path d="M35 76.8c0 1.6 1.3 2.9 2.9 2.9h29.4c1.6 0 2.9-1.3 2.9-2.9 0-1.6-1.3-2.9-2.9-2.9H37.9c-1.6-.1-2.9 1.2-2.9 2.9zM58.5 88.5c0 1.6 1.3 2.9 2.9 2.9H85c1.6 0 2.9-1.3 2.9-2.9 0-1.6-1.3-2.9-2.9-2.9H61.4c-1.6 0-2.9 1.3-2.9 2.9zM79.1 79.7H85c1.6 0 2.9-1.3 2.9-2.9 0-1.6-1.3-2.9-2.9-2.9h-5.9c-1.6 0-2.9 1.3-2.9 2.9-.1 1.6 1.2 2.9 2.9 2.9zM37.9 103.2h26.5c1.6 0 2.9-1.3 2.9-2.9 0-1.6-1.3-2.9-2.9-2.9H37.9c-1.6 0-2.9 1.3-2.9 2.9 0 1.6 1.3 2.9 2.9 2.9zM37.9 91.5h11.8c1.6 0 2.9-1.3 2.9-2.9 0-1.6-1.3-2.9-2.9-2.9H37.9c-1.6 0-2.9 1.3-2.9 2.9 0 1.6 1.3 2.9 2.9 2.9zM85 97.4h-8.8c-1.6 0-2.9 1.3-2.9 2.9 0 1.6 1.3 2.9 2.9 2.9H85c1.6 0 2.9-1.3 2.9-2.9 0-1.6-1.3-2.9-2.9-2.9zM67.3 26.8c-1.6 0-2.9 1.3-2.9 2.9v32.4c0 1.6 1.3 2.9 2.9 2.9 1.6 0 2.9-1.3 2.9-2.9V29.7c0-1.6-1.3-2.9-2.9-2.9zM79.1 65c1.6 0 2.9-1.3 2.9-2.9V38.5c0-1.6-1.3-2.9-2.9-2.9-1.6 0-2.9 1.3-2.9 2.9V62c-.1 1.7 1.2 3 2.9 3zM58.5 62.1V41.5c0-1.6-1.3-2.9-2.9-2.9-1.6 0-2.9 1.3-2.9 2.9v20.6c0 1.6 1.3 2.9 2.9 2.9 1.6 0 2.9-1.3 2.9-2.9zM46.7 62.1V50.3c0-1.6-1.3-2.9-2.9-2.9-1.6 0-2.9 1.3-2.9 2.9v11.8c0 1.6 1.3 2.9 2.9 2.9 1.6 0 2.9-1.3 2.9-2.9z"/></symbol><symbol id="icon-close" viewBox="0 0 18 18"><path d="M18 1.6L16.4 0 9 7.4 1.6 0 0 1.6 7.4 9 0 16.4 1.6 18 9 10.6l7.4 7.4 1.6-1.6L10.6 9z"/></symbol><symbol id="icon-play" viewBox="0 0 15 17"><path d="M14.4 7.8L1.9.3c-.3-.2-.6-.2-.8 0C.8.4.7.7.7 1v15c0 .3.2.6.4.7.3.1.6.1.8 0l12.5-7.5c.3-.2.4-.4.4-.7s-.1-.6-.4-.7z"/></symbol><symbol id="icon-share" viewBox="0 0 13 14"><path fill="none" d="M2.4 5.6C1.6 5.6.9 6.2.9 7c0 .8.6 1.4 1.4 1.4S3.8 7.8 3.8 7c0-.8-.7-1.4-1.4-1.4zM10.4 2.8c.5 0 .9-.4.9-.9s-.4-.9-.9-.9-1 .4-1 .9.4.9 1 .9zM10.1 10.7c-.6 0-1.2.5-1.2 1.2s.6 1.1 1.2 1.1 1.2-.5 1.2-1.2-.5-1.1-1.2-1.1z"/><path d="M11.3 10.1c-.9-.5-2-.4-2.7.3l-4-2.6c.2-.5.2-1.1 0-1.7l4.5-2.9c.7.6 1.6.7 2.4.1.7-.5 1-1.5.6-2.3-.4-.7-1.3-1.1-2.1-1-.9.2-1.5 1-1.5 1.9 0 .2 0 .4.1.6L4 5.4c-.4-.5-1-.7-1.6-.7-1.1 0-2 .7-2.3 1.7-.3 1 .2 2.1 1.1 2.6.9.5 2.1.4 2.8-.4l4.1 2.6c-.1.2-.1.5-.1.7 0 1 .7 1.9 1.7 2.1s2-.3 2.4-1.3c.4-1 0-2-.8-2.6zM10.4.9c.5 0 .9.4.9.9s-.4.9-.9.9-1-.3-1-.8.4-1 1-1zm-8 7.5C1.6 8.4.9 7.8.9 7c0-.8.6-1.4 1.4-1.4s1.5.6 1.5 1.4c0 .8-.7 1.4-1.4 1.4zm7.7 4.6c-.6 0-1.2-.5-1.2-1.2s.5-1.2 1.2-1.2c.6 0 1.2.5 1.2 1.2s-.5 1.2-1.2 1.2z"/></symbol></svg>